<?xml version="1.0" standalone="no"?>
<!DOCTYPE svg PUBLIC "-//W3C//DTD SVG 20010904//EN"
 "http://www.w3.org/TR/2001/REC-SVG-20010904/DTD/svg10.dtd">
<svg version="1.0" xmlns="http://www.w3.org/2000/svg"
 width="512.000000pt" height="512.000000pt" viewBox="0 0 512.000000 512.000000"
 preserveAspectRatio="xMidYMid meet">

<g transform="translate(0.000000,512.000000) scale(0.100000,-0.100000)"
fill="#000000" stroke="none">
<path d="M915 5108 c-27 -5 -90 -29 -140 -53 -146 -71 -258 -201 -308 -360
l-22 -70 0 -2065 0 -2065 22 -70 c50 -159 162 -289 308 -360 50 -24 117 -49
149 -54 40 -8 523 -11 1490 -11 1217 0 1441 3 1501 15 104 22 208 78 286 155
72 71 109 128 148 229 l26 66 3 574 3 573 -142 -123 c-78 -68 -166 -144 -195
-169 l-54 -45 0 -350 c0 -225 -4 -364 -11 -390 -17 -62 -82 -120 -149 -134
-40 -8 -436 -11 -1450 -9 l-1395 3 -42 23 c-24 12 -55 41 -70 64 l-28 42 0
2036 0 2036 28 42 c15 23 46 52 70 64 l42 23 1395 3 c1014 2 1410 -1 1450 -9
67 -14 132 -72 149 -134 7 -26 11 -166 11 -390 l1 -350 82 -70 c45 -38 133
-114 195 -169 l113 -98 -3 573 -3 574 -26 66 c-39 101 -76 158 -148 229 -78
77 -182 133 -286 155 -60 12 -282 15 -1510 14 -845 -1 -1461 -5 -1490 -11z"/>
<path d="M3095 3841 c-28 -12 -61 -50 -76 -86 -9 -21 -14 -117 -17 -317 l-4
-288 -607 0 -607 0 -50 -25 c-56 -28 -88 -70 -103 -135 -14 -60 -14 -800 0
-860 15 -65 47 -107 103 -135 l50 -25 608 0 608 0 0 -242 c0 -268 8 -345 42
-394 28 -41 56 -54 113 -54 45 0 45 0 777 635 403 349 733 640 733 645 0 5
-330 296 -734 646 -683 592 -737 637 -775 640 -23 2 -50 0 -61 -5z"/>
</g>
</svg>
